<svg width="43" height="32" viewBox="0 0 43 32" fill="none" xmlns="http://www.w3.org/2000/svg"><g fill="#1946C8"><path d="M35.02 5.977C35.02 5.71 34.87 5.58 34.57 5.58H33.95V6.767H34.26V6.375H34.49L34.71 6.767H35.05L34.8 6.34C34.94 6.276 35.02 6.153 35.02 5.977ZM34.51 6.139H34.26V5.827H34.51C34.65 5.827 34.71 5.87 34.71 5.983C34.71 6.095 34.65 6.139 34.51 6.139Z"/><path d="M34.45 4.99C33.74 4.99 33.23 5.52 33.23 6.19C33.23 6.85 33.74 7.36 34.45 7.36C35.16 7.36 35.67 6.85 35.67 6.19C35.67 5.53 35.16 4.99 34.45 4.99ZM34.45 7.18C33.84 7.18 33.45 6.74 33.45 6.19C33.45 5.63 33.83 5.19 34.45 5.19C35.06 5.19 35.45 5.62 35.45 6.19C35.45 6.76 35.06 7.18 34.45 7.18Z"/><path d="M31.12 8.29V0.7H22.75L19.45 5.28C23.8 5.42 27.73 6.55 31.13 8.29H31.12Z"/><path d="M24.76 11.25V18.57H17.37L22.78 10.73C21.22 10.39 19.58 10.21 17.85 10.21C17.15 10.21 16.47 10.24 15.82 10.3L0.7 31.24H8.62L13.54 24.11H24.76V31.24H31.12V14.48C29.27 13.12 27.14 12.01 24.76 11.26V11.25Z"/></g><path d="M16.18 3.89C6.58 3.89 0.87 8.85 0.87 14.39C0.87 17.43 2.63 20.66 6.35 23.42C0.13 15.63 4.1 8.21 15.58 8.21C35.73 8.21 44.21 29.96 31.12 31.24C52.62 31.24 40.86 3.89 16.18 3.89H16.18Z" fill="#E81111"/></svg>
