<svg xmlns="http://www.w3.org/2000/svg" viewBox="0 0 24 24" fill="currentColor"><path d="M12 2.2c3.2 0 3.6 0 4.8.1 1.2.1 1.8.2 2.2.4.6.2 1 .5 1.4.9.4.4.7.8.9 1.4.2.4.4 1.1.4 2.2.1 1.3.1 1.6.1 4.8s0 3.6-.1 4.8c-.1 1.2-.2 1.8-.4 2.2-.2.6-.5 1-.9 1.4-.4.4-.8.7-1.4.9-.4.2-1.1.4-2.2.4-1.3.1-1.6.1-4.8.1s-3.6 0-4.8-.1c-1.2-.1-1.8-.2-2.2-.4-.6-.2-1-.5-1.4-.9-.4-.4-.7-.8-.9-1.4-.2-.4-.4-1.1-.4-2.2-.1-1.3-.1-1.6-.1-4.8s0-3.6.1-4.8c.1-1.2.2-1.8.4-2.2.2-.6.5-1 .9-1.4.4-.4.8-.7 1.4-.9.4-.2 1.1-.4 2.2-.4 1.2-.1 1.6-.1 4.8-.1M12 0C8.7 0 8.3 0 7.1.1 5.8.1 4.9.3 4.1.6c-.8.3-1.5.7-2.2 1.4C1.2 2.6.8 3.3.6 4.1.3 4.9.1 5.8.1 7.1 0 8.3 0 8.7 0 12s0 3.7.1 4.9c.1 1.3.2 2.1.5 2.9.3.8.7 1.5 1.4 2.2.7.7 1.4 1.1 2.2 1.4.8.3 1.7.5 2.9.5 1.2.1 1.6.1 4.9.1s3.7 0 4.9-.1c1.3-.1 2.1-.2 2.9-.5.8-.3 1.5-.7 2.2-1.4.7-.7 1.1-1.4 1.4-2.2.3-.8.5-1.7.5-2.9.1-1.2.1-1.6.1-4.9s0-3.7-.1-4.9c-.1-1.3-.2-2.1-.5-2.9-.3-.8-.7-1.5-1.4-2.2-.7-.7-1.4-1.1-2.2-1.4-.8-.3-1.7-.5-2.9-.5C15.7 0 15.3 0 12 0zm0 5.8a6.2 6.2 0 1 0 0 12.4 6.2 6.2 0 0 0 0-12.4zM12 16a4 4 0 1 1 0-8 4 4 0 0 1 0 8zm6.4-10.8a1.4 1.4 0 1 0 0 2.8 1.4 1.4 0 0 0 0-2.8z"/></svg>